<?xml version="1.0" encoding="UTF-8"?>
<svg xmlns="http://www.w3.org/2000/svg" xmlns:xlink="http://www.w3.org/1999/xlink" viewBox="0 0 405.44 633.82">
  <defs>
    <style>
      .cls-1 {
        fill: url(#linear-gradient);
      }

      .cls-1, .cls-2, .cls-3, .cls-4, .cls-5, .cls-6, .cls-7, .cls-8, .cls-9, .cls-10, .cls-11, .cls-12, .cls-13 {
        stroke-width: 0px;
      }

      .cls-2 {
        fill: #000;
      }

      .cls-3 {
        fill: url(#radial-gradient-2);
      }

      .cls-3, .cls-6, .cls-14 {
        mix-blend-mode: multiply;
      }

      .cls-4 {
        fill: url(#linear-gradient-6);
      }

      .cls-5 {
        fill: #ffc609;
      }

      .cls-15 {
        isolation: isolate;
      }

      .cls-6 {
        fill: url(#radial-gradient);
      }

      .cls-7 {
        fill: #f0f0f0;
      }

      .cls-8 {
        fill: url(#linear-gradient-5);
      }

      .cls-16 {
        mix-blend-mode: soft-light;
      }

      .cls-9 {
        fill: none;
      }

      .cls-10 {
        fill: url(#linear-gradient-2);
      }

      .cls-11 {
        fill: url(#linear-gradient-7);
      }

      .cls-12 {
        fill: url(#linear-gradient-3);
      }

      .cls-17 {
        clip-path: url(#clippath);
      }

      .cls-13 {
        fill: url(#linear-gradient-4);
      }
    </style>
    <clipPath id="clippath">
      <polygon class="cls-9" points="405.44 633.82 .95 633.82 0 0 404.49 0 405.44 633.82"/>
    </clipPath>
    <radialGradient id="radial-gradient" cx="-17.06" cy="6305.41" fx="-78.3" fy="6305.41" r="69.49" gradientTransform="translate(498.53 -1121.39) scale(1.35 .26)" gradientUnits="userSpaceOnUse">
      <stop offset=".06" stop-color="#333"/>
      <stop offset=".07" stop-color="#343434"/>
      <stop offset=".26" stop-color="#717171"/>
      <stop offset=".44" stop-color="#a4a4a4"/>
      <stop offset=".61" stop-color="#cbcbcb"/>
      <stop offset=".76" stop-color="#e7e7e7"/>
      <stop offset=".9" stop-color="#f8f8f8"/>
      <stop offset="1" stop-color="#fff"/>
    </radialGradient>
    <radialGradient id="radial-gradient-2" cx="-36.13" cy="6319.64" fx="-102.31" fy="6319.64" r="75.08" xlink:href="#radial-gradient"/>
    <linearGradient id="linear-gradient" x1="366.13" y1="1012.06" x2="366.13" y2="-202.98" gradientUnits="userSpaceOnUse">
      <stop offset=".47" stop-color="#ed3b24"/>
      <stop offset="1" stop-color="#000" stop-opacity="0"/>
    </linearGradient>
    <linearGradient id="linear-gradient-2" x1="201.96" x2="201.96" xlink:href="#linear-gradient"/>
    <linearGradient id="linear-gradient-3" x1="37.78" x2="37.78" xlink:href="#linear-gradient"/>
    <linearGradient id="linear-gradient-4" x1="448.22" y1="1315.59" x2="448.22" y2="-506.52" xlink:href="#linear-gradient"/>
    <linearGradient id="linear-gradient-5" x1="284.05" y1="1315.59" x2="284.05" y2="-506.52" xlink:href="#linear-gradient"/>
    <linearGradient id="linear-gradient-6" x1="119.87" y1="1315.59" x2="119.87" y2="-506.52" xlink:href="#linear-gradient"/>
    <linearGradient id="linear-gradient-7" x1="-3.27" y1="708.52" x2="-3.27" y2="-506.52" xlink:href="#linear-gradient"/>
  </defs>
  <g class="cls-15">
    <g id="Layer_2" data-name="Layer 2">
      <g id="background">
        <g class="cls-14">
          <g class="cls-17">
            <ellipse class="cls-6" cx="475.42" cy="522.43" rx="94.08" ry="18.12"/>
            <ellipse class="cls-3" cx="449.6" cy="526.14" rx="101.66" ry="19.58"/>
            <polygon class="cls-9" points="67.64 89.73 98.49 89.73 88.74 238.43 67.59 238.43 67.64 89.73"/>
            <g class="cls-16">
              <g>
                <polygon class="cls-1" points="323.36 739.77 359.48 739.77 384.44 404.98 384.5 404.98 405.4 133.05 405.45 132.7 441.57 132.7 466.59 -202.98 429.86 -202.98 408.96 68.95 408.91 69.3 372.78 69.3 347.83 404.09 347.77 404.09 326.87 676.02 326.82 676.38 290.69 676.38 265.68 1012.06 302.41 1012.06 323.31 740.13 323.36 739.77"/>
                <polygon class="cls-10" points="159.18 739.77 195.31 739.77 220.26 404.98 220.32 404.98 241.22 133.05 241.27 132.7 277.4 132.7 302.41 -202.98 265.68 -202.98 244.78 68.95 244.73 69.3 208.61 69.3 183.65 404.09 183.59 404.09 162.69 676.02 162.64 676.38 126.52 676.38 101.5 1012.06 138.23 1012.06 159.13 740.13 159.18 739.77"/>
                <polygon class="cls-12" points="-5 739.77 31.13 739.77 56.08 404.98 56.14 404.98 77.05 133.05 77.09 132.7 113.22 132.7 138.24 -202.98 101.5 -202.98 80.6 68.95 80.55 69.3 44.43 69.3 19.48 404.09 19.42 404.09 -1.49 676.02 -1.53 676.38 -37.66 676.38 -62.68 1012.06 -25.95 1012.06 -5.04 740.13 -5 739.77"/>
                <polygon class="cls-13" points="446.44 436.59 446.49 436.23 482.62 436.23 507.57 101.44 507.63 101.44 528.53 -170.48 528.58 -170.84 564.71 -170.84 589.72 -506.52 552.99 -506.52 532.09 -234.59 532.04 -234.23 495.92 -234.23 470.96 100.56 470.9 100.56 450 372.48 449.95 372.84 413.83 372.84 388.88 707.63 388.81 707.63 367.91 979.56 367.87 979.91 331.74 979.91 306.72 1315.59 343.45 1315.59 364.36 1043.67 364.4 1043.31 400.53 1043.31 425.48 708.52 425.54 708.52 446.44 436.59"/>
                <polygon class="cls-8" points="282.27 436.59 282.31 436.23 318.44 436.23 343.39 101.44 343.45 101.44 364.36 -170.48 364.4 -170.84 400.53 -170.84 425.55 -506.52 388.81 -506.52 367.91 -234.59 367.87 -234.23 331.74 -234.23 306.79 100.56 306.73 100.56 285.82 372.48 285.78 372.84 249.65 372.84 224.7 707.63 224.64 707.63 203.73 979.56 203.69 979.91 167.56 979.91 142.54 1315.59 179.28 1315.59 200.18 1043.67 200.22 1043.31 236.35 1043.31 261.3 708.52 261.36 708.52 282.27 436.59"/>
                <polygon class="cls-4" points="118.09 436.59 118.14 436.23 154.26 436.23 179.22 101.44 179.28 101.44 200.18 -170.48 200.22 -170.84 236.35 -170.84 261.37 -506.52 224.64 -506.52 203.73 -234.59 203.69 -234.23 167.56 -234.23 142.61 100.56 142.55 100.56 121.64 372.48 121.6 372.84 85.47 372.84 60.52 707.63 60.46 707.63 39.56 979.56 39.51 979.91 3.38 979.91 -21.63 1315.59 15.1 1315.59 36 1043.67 36.05 1043.31 72.17 1043.31 97.13 708.52 97.19 708.52 118.09 436.59"/>
                <polygon class="cls-11" points="-46.04 436.23 -9.91 436.23 15.04 101.44 15.1 101.44 36 -170.48 36.05 -170.84 72.17 -170.84 97.19 -506.52 60.46 -506.52 39.56 -234.59 39.51 -234.23 3.38 -234.23 -21.57 100.56 -21.63 100.56 -42.53 372.48 -42.58 372.84 -78.7 372.84 -103.72 708.52 -66.99 708.52 -46.09 436.59 -46.04 436.23"/>
              </g>
            </g>
            <rect class="cls-9" x="-70.46" y="211.24" width="613.61" height="409.07"/>
          </g>
        </g>
      </g>
      <g id="Layer_5" data-name="Layer 5">
        <g>
          <g>
            <g>
              <path class="cls-7" d="M68.37,568.58h-1.74c-.11,0-.2.09-.2.2v4.47c0,.08-.07.15-.15.15h-5.37c-.08,0-.15-.07-.15-.15v-4.47c0-.11-.09-.2-.21-.2h-1.74c-.11,0-.2.09-.2.2v11.39c0,.11.09.2.2.2h1.75c.11,0,.2-.09.2-.2v-4.47c0-.08.07-.15.15-.15h5.37c.08,0,.15.07.15.15v4.47c0,.11.09.2.2.2h1.75c.11,0,.2-.09.2-.2v-11.39c0-.11-.1-.2-.21-.2Z"/>
              <path class="cls-7" d="M56.11,565.65v-1.69c0-.11-.09-.2-.2-.2h-9.06c-.11,0-.2.09-.2.2v11.39c0,.11.09.2.2.2h9.06c.11,0,.2-.1.2-.21v-1.69c0-.11-.09-.2-.2-.2h-6.96c-.08,0-.15-.07-.15-.15v-2.44c0-.08.07-.15.15-.15h5.38c.11,0,.2-.09.2-.21v-1.69c0-.11-.09-.2-.2-.2h-5.38c-.08,0-.15-.07-.15-.15v-2.44c0-.08.07-.15.15-.15h6.96c.11,0,.2-.09.2-.21Z"/>
              <path class="cls-7" d="M39.12,558.93h-2.4c-.12,0-.24.07-.29.19l-4.95,11.11c-.11.24.07.51.33.51h12.21c.26,0,.44-.27.33-.51l-4.95-11.1c-.05-.11-.16-.19-.29-.19ZM34.59,568.48l3.2-7.18c.05-.11.2-.11.25,0l3.2,7.18c.05.1-.03.22-.14.22h-6.37c-.11,0-.19-.12-.14-.22Z"/>
              <path class="cls-7" d="M62.37,548.81c11.71,6.05,16.31,20.45,10.26,32.16-6.05,11.72-20.44,16.31-32.15,10.26l-.81,1.57c12.58,6.49,28.04,1.56,34.53-11.02,6.49-12.58,1.56-28.05-11.02-34.54l-.81,1.57Z"/>
              <path class="cls-7" d="M40.48,591.24c-11.71-6.05-16.31-20.45-10.26-32.16,6.05-11.72,20.44-16.31,32.15-10.26l.81-1.57c-12.58-6.49-28.04-1.56-34.53,11.02-6.49,12.58-1.56,28.05,11.02,34.54l.81-1.57Z"/>
            </g>
            <g>
              <path class="cls-7" d="M99.3,564.45v3.72c1.59-2.78,3.6-4.06,6.22-4.06,2.26,0,4.49,1.01,5.13,4.36,1.62-2.99,3.66-4.36,6.38-4.36s5.28,1.37,5.28,6.35v9.92h-2.29v-9.61c0-3.17-1.43-4.52-3.48-4.52-2.5,0-4.33,1.83-5.74,5.46v8.67h-2.29v-9.61c0-3.17-1.43-4.52-3.48-4.52-2.53,0-4.3,1.83-5.74,5.49v8.63h-2.29v-15.93h2.29Z"/>
              <path class="cls-7" d="M131.28,580.59l-6.47-16.14h2.62l5.03,13.18,4.67-13.18h2.59l-8.6,22.3h-2.44l2.62-6.16h-.03Z"/>
              <path class="cls-7" d="M145.46,558.93v9.58h13.18v-9.58h2.38v21.45h-2.38v-9.64h-13.18v9.64h-2.38v-21.45h2.38Z"/>
              <path class="cls-7" d="M173.29,564.12c3.84,0,8.39,2.56,8.39,8.18s-4.24,8.39-8.45,8.39-8.15-2.59-8.15-8.21,4.3-8.36,8.21-8.36ZM173.35,566.22c-2.78,0-5.86,1.86-5.86,6.1s2.75,6.26,5.86,6.26,5.92-1.98,5.92-6.07-2.93-6.29-5.92-6.29Z"/>
              <path class="cls-7" d="M187.87,564.45v3.72c1.59-2.78,3.6-4.06,6.22-4.06,2.26,0,4.49,1.01,5.13,4.36,1.62-2.99,3.66-4.36,6.38-4.36s5.28,1.37,5.28,6.35v9.92h-2.29v-9.61c0-3.17-1.43-4.52-3.48-4.52-2.5,0-4.33,1.83-5.74,5.46v8.67h-2.29v-9.61c0-3.17-1.43-4.52-3.48-4.52-2.53,0-4.3,1.83-5.74,5.49v8.63h-2.29v-15.93h2.29Z"/>
              <path class="cls-7" d="M222.38,564.12c4.06,0,7.35,2.75,7.35,8.3,0,.27-.03.64-.06.85h-12.6c.21,3.57,2.29,5.31,5.89,5.31,1.83,0,3.48-.24,5.46-1.4l.52,1.86c-1.37.98-3.84,1.65-6.1,1.65-5.03,0-8.21-2.93-8.21-8.09,0-5.46,3.57-8.48,7.75-8.48ZM222.32,566.22c-2.78,0-4.82,1.68-5.22,5.1h10.19c-.31-3.48-2.26-5.1-4.97-5.1Z"/>
              <path class="cls-7" d="M231.81,575.29v-1.77l10.71-14.58h1.98v14.16h3.05v2.2h-3.05v5.4h-2.38v-5.4h-10.31ZM242.12,562.78l-7.6,10.31h7.6v-10.31Z"/>
              <path class="cls-7" d="M250.6,576.99c1.31.76,3.26,1.43,5.16,1.43,3.23,0,4.82-1.68,4.82-3.78,0-5.07-10.44-2.32-10.44-9.92,0-3.75,2.87-6.1,6.77-6.1,2.01,0,4.33.58,5.49,1.56l-1.01,2.01c-1.13-.67-2.75-1.31-4.55-1.31-2.9,0-4.3,1.62-4.3,3.6,0,5.92,10.47,2.87,10.47,9.95,0,3.78-3.23,6.25-7.26,6.25-1.92,0-4.55-.58-5.92-1.43l.76-2.26Z"/>
              <path class="cls-7" d="M267.47,566.41h-2.9v-1.95h2.9v-4.82h2.29v4.82h5.92v1.95h-5.92v8.3c0,2.96,1.28,3.91,3.02,3.91,1.01,0,2.23-.27,3.23-.85l.58,1.86c-1.28.67-2.5,1.07-4.27,1.07-2.68,0-4.85-1.59-4.85-5.61v-8.67Z"/>
              <path class="cls-7" d="M278.98,564.45h2.29v9.61c0,3.14,1.46,4.49,3.42,4.49,2.62,0,4.39-1.77,5.74-5.4v-8.7h2.29v15.93h-2.29v-3.6c-1.53,2.68-3.54,3.91-6.22,3.91s-5.22-1.34-5.22-6.35v-9.89Z"/>
              <path class="cls-7" d="M304.36,564.12c2.72,0,4.76,1.28,6.13,3.57v-8.76h2.29v21.45h-2.29v-3.39c-1.4,2.44-3.39,3.69-6.13,3.69-4.3,0-7.72-2.93-7.72-8.21s3.42-8.36,7.72-8.36ZM304.39,566.22c-3.05,0-5.34,1.92-5.34,6.22,0,3.91,2.29,6.13,5.34,6.13,3.36,0,5.46-2.65,6.1-6.16-.52-3.42-2.99-6.19-6.1-6.19Z"/>
              <path class="cls-7" d="M324.47,564.12c4.06,0,7.35,2.75,7.35,8.3,0,.27-.03.64-.06.85h-12.6c.21,3.57,2.29,5.31,5.89,5.31,1.83,0,3.48-.24,5.46-1.4l.52,1.86c-1.37.98-3.84,1.65-6.1,1.65-5.03,0-8.21-2.93-8.21-8.09,0-5.46,3.57-8.48,7.75-8.48ZM324.41,566.22c-2.78,0-4.82,1.68-5.22,5.1h10.19c-.31-3.48-2.26-5.1-4.97-5.1Z"/>
              <path class="cls-7" d="M337.92,564.45v3.75c1.65-2.81,3.72-4.09,6.35-4.09s5.31,1.37,5.31,6.35v9.92h-2.29v-9.61c0-3.17-1.46-4.52-3.48-4.52-2.72,0-4.45,1.8-5.89,5.46v8.67h-2.29v-15.93h2.29Z"/>
              <path class="cls-7" d="M355.16,566.41h-2.9v-1.95h2.9v-4.82h2.29v4.82h5.92v1.95h-5.92v8.3c0,2.96,1.28,3.91,3.02,3.91,1.01,0,2.23-.27,3.23-.85l.58,1.86c-1.28.67-2.5,1.07-4.27,1.07-2.68,0-4.85-1.59-4.85-5.61v-8.67Z"/>
              <path class="cls-7" d="M366.2,577.42c1.37.73,2.96,1.16,4.7,1.16,2.23,0,3.81-.58,3.81-2.47,0-4.09-8.85-.7-8.85-7.32,0-2.78,2.07-4.67,5.83-4.67,1.53,0,3.45.43,4.79,1.19l-.61,2.11c-1.34-.79-2.68-1.19-4.15-1.19-1.92,0-3.51.79-3.51,2.44,0,4.58,8.79,1.16,8.79,7.32,0,2.93-2.84,4.7-6.13,4.7-1.89,0-4.15-.58-5.31-1.19l.64-2.08Z"/>
            </g>
          </g>
          <g>
            <rect class="cls-5" x="316.87" y="592.85" width="60.1" height="15.08"/>
            <g>
              <path class="cls-2" d="M321.05,598.01v1.74l1.38-1.74h.78l-1.47,1.81,1.5,1.92h-.87l-1.33-1.73v1.73h-.7v-3.72h.7Z"/>
              <path class="cls-2" d="M323.41,598.93h.67v1.56c0,.46.27.71.68.71.45,0,.66-.28.66-.73v-1.55h.68v1.58c0,.92-.7,1.28-1.36,1.28-.7,0-1.33-.37-1.33-1.29v-1.58Z"/>
              <path class="cls-2" d="M327.43,598.93v1.6c0,.47.19.68.51.68.37,0,.65-.25.85-.79v-1.49h.68v2.8h-.68v-.52c-.24.38-.55.58-.93.58-.16,0-.31-.04-.43-.12v1.19h-.67v-3.92h.67Z"/>
              <path class="cls-2" d="M331.4,598.86c.43,0,.76.17,1,.51v-.43h.67v2.8h-.67v-.51c-.23.37-.56.57-1,.57-.73,0-1.38-.5-1.38-1.46s.63-1.48,1.38-1.48ZM332.4,600.3c-.14-.54-.49-.87-.9-.87-.43,0-.77.3-.77.9s.33.9.77.9.77-.37.9-.89v-.03Z"/>
              <path class="cls-2" d="M333.79,598.93h.67v1.8c0,.35.13.5.39.5.13,0,.26-.03.36-.07l.07.53c-.13.05-.34.1-.57.1-.66,0-.92-.32-.92-1.01v-1.86Z"/>
              <path class="cls-2" d="M335.89,598.93l.73,2.03.77-2.03h.75l-1.21,2.8h-.67l-1.16-2.8h.78Z"/>
              <path class="cls-2" d="M339.78,598.85c.8,0,1.55.51,1.55,1.47s-.73,1.48-1.56,1.48-1.52-.51-1.52-1.46.71-1.49,1.53-1.49ZM339.79,599.42c-.44,0-.83.29-.83.9s.36.91.82.91.84-.31.84-.9-.38-.91-.83-.91ZM340.25,597.73l-.24.87h-.53l.12-.87h.65Z"/>
              <path class="cls-2" d="M342.54,598.93v1.6c0,.47.19.68.51.68.37,0,.65-.25.85-.79v-1.49h.68v2.8h-.68v-.52c-.24.38-.55.58-.93.58-.16,0-.31-.04-.43-.12v1.19h-.67v-3.92h.67Z"/>
              <path class="cls-2" d="M345.67,600.26c-.29-.12-.48-.29-.48-.6,0-.48.48-.8,1.35-.8.41,0,.87.09,1.12.24l-.15.52c-.25-.14-.58-.22-.93-.22-.4,0-.66.12-.66.37,0,.21.22.31.53.31h.61v.45h-.61c-.41,0-.59.12-.59.35,0,.27.27.37.68.37s.74-.08,1.01-.21l.15.49c-.3.16-.76.28-1.23.28-.75,0-1.32-.23-1.32-.85,0-.33.23-.58.54-.69Z"/>
              <path class="cls-2" d="M348.61,598.93l.73,2.03.77-2.03h.75l-1.21,2.8h-.67l-1.16-2.8h.78Z"/>
              <path class="cls-2" d="M352.5,598.85c.8,0,1.55.51,1.55,1.47s-.73,1.48-1.56,1.48-1.52-.51-1.52-1.46.71-1.49,1.53-1.49ZM352.51,599.42c-.44,0-.83.29-.83.9s.36.91.82.91.84-.31.84-.9-.38-.91-.83-.91Z"/>
              <path class="cls-2" d="M358.49,598.93v2.8h-.68v-2.22h-1.35v2.22h-.68v-2.8h2.71Z"/>
              <path class="cls-2" d="M360.61,598.86c.82,0,1.51.51,1.51,1.47s-.65,1.48-1.38,1.48c-.42,0-.73-.18-.95-.5v1.55h-.67v-2.34c0-1.08.71-1.65,1.49-1.65ZM360.62,599.43c-.48,0-.82.38-.82,1.04v.04c.15.43.44.73.85.73.44,0,.77-.33.77-.9s-.37-.91-.8-.91Z"/>
              <path class="cls-2" d="M364.04,598.85c.8,0,1.55.51,1.55,1.47s-.73,1.48-1.56,1.48-1.52-.51-1.52-1.46.71-1.49,1.53-1.49ZM364.05,599.42c-.44,0-.83.29-.83.9s.36.91.82.91.84-.31.84-.9-.38-.91-.83-.91Z"/>
              <path class="cls-2" d="M365.97,597.78c.2,0,.37.14.37.35s-.16.36-.37.36-.37-.14-.37-.36.17-.35.37-.35ZM366.14,598.93h.67v1.8c0,.35.13.5.39.5.13,0,.26-.03.36-.07l.07.53c-.13.05-.34.1-.57.1-.66,0-.92-.32-.92-1.01v-1.86ZM366.98,597.78c.2,0,.37.14.37.35s-.17.36-.37.36c-.19,0-.37-.14-.37-.36s.17-.35.37-.35Z"/>
              <path class="cls-2" d="M369.3,598.85c.8,0,1.55.51,1.55,1.47s-.73,1.48-1.56,1.48-1.52-.51-1.52-1.46.71-1.49,1.53-1.49ZM369.31,599.42c-.44,0-.83.29-.83.9s.36.91.82.91.84-.31.84-.9-.38-.91-.83-.91ZM369.77,597.73l-.24.87h-.53l.12-.87h.65Z"/>
              <path class="cls-2" d="M371.74,598.93l.73,2.03.77-2.03h.75l-1.21,2.8h-.67l-1.16-2.8h.78Z"/>
            </g>
          </g>
        </g>
      </g>
    </g>
  </g>
</svg>