<?xml version="1.0" encoding="UTF-8"?>
<svg xmlns="http://www.w3.org/2000/svg" xmlns:xlink="http://www.w3.org/1999/xlink" viewBox="0 0 405.44 633.82">
  <defs>
    <style>
      .cls-1 {
        fill: url(#linear-gradient);
      }

      .cls-1, .cls-2, .cls-3, .cls-4, .cls-5, .cls-6, .cls-7, .cls-8, .cls-9, .cls-10 {
        stroke-width: 0px;
      }

      .cls-2 {
        fill: url(#radial-gradient-2);
      }

      .cls-2, .cls-4, .cls-11 {
        mix-blend-mode: multiply;
      }

      .cls-3 {
        fill: url(#linear-gradient-6);
      }

      .cls-12 {
        isolation: isolate;
      }

      .cls-4 {
        fill: url(#radial-gradient);
      }

      .cls-5 {
        fill: url(#linear-gradient-5);
      }

      .cls-13 {
        mix-blend-mode: soft-light;
      }

      .cls-6 {
        fill: none;
      }

      .cls-7 {
        fill: url(#linear-gradient-2);
      }

      .cls-8 {
        fill: url(#linear-gradient-7);
      }

      .cls-9 {
        fill: url(#linear-gradient-3);
      }

      .cls-14 {
        clip-path: url(#clippath);
      }

      .cls-10 {
        fill: url(#linear-gradient-4);
      }
    </style>
    <clipPath id="clippath">
      <polygon class="cls-6" points="405.44 633.82 .95 633.82 0 0 404.49 0 405.44 633.82"/>
    </clipPath>
    <radialGradient id="radial-gradient" cx="-17.06" cy="6305.41" fx="-78.3" fy="6305.41" r="69.49" gradientTransform="translate(498.53 -1121.39) scale(1.35 .26)" gradientUnits="userSpaceOnUse">
      <stop offset=".06" stop-color="#333"/>
      <stop offset=".07" stop-color="#343434"/>
      <stop offset=".26" stop-color="#717171"/>
      <stop offset=".44" stop-color="#a4a4a4"/>
      <stop offset=".61" stop-color="#cbcbcb"/>
      <stop offset=".76" stop-color="#e7e7e7"/>
      <stop offset=".9" stop-color="#f8f8f8"/>
      <stop offset="1" stop-color="#fff"/>
    </radialGradient>
    <radialGradient id="radial-gradient-2" cx="-36.13" cy="6319.64" fx="-102.31" fy="6319.64" r="75.08" xlink:href="#radial-gradient"/>
    <linearGradient id="linear-gradient" x1="366.13" y1="1012.06" x2="366.13" y2="-202.98" gradientUnits="userSpaceOnUse">
      <stop offset=".47" stop-color="#ed3b24"/>
      <stop offset="1" stop-color="#000" stop-opacity="0"/>
    </linearGradient>
    <linearGradient id="linear-gradient-2" x1="201.96" x2="201.96" xlink:href="#linear-gradient"/>
    <linearGradient id="linear-gradient-3" x1="37.78" x2="37.78" xlink:href="#linear-gradient"/>
    <linearGradient id="linear-gradient-4" x1="448.22" y1="1315.59" x2="448.22" y2="-506.52" xlink:href="#linear-gradient"/>
    <linearGradient id="linear-gradient-5" x1="284.05" y1="1315.59" x2="284.05" y2="-506.52" xlink:href="#linear-gradient"/>
    <linearGradient id="linear-gradient-6" x1="119.87" y1="1315.59" x2="119.87" y2="-506.52" xlink:href="#linear-gradient"/>
    <linearGradient id="linear-gradient-7" x1="-3.27" y1="708.52" x2="-3.27" y2="-506.52" xlink:href="#linear-gradient"/>
  </defs>
  <g class="cls-12">
    <g id="Layer_2" data-name="Layer 2">
      <g id="background">
        <g class="cls-11">
          <g class="cls-14">
            <ellipse class="cls-4" cx="475.42" cy="522.43" rx="94.08" ry="18.12"/>
            <ellipse class="cls-2" cx="449.6" cy="526.14" rx="101.66" ry="19.58"/>
            <polygon class="cls-6" points="67.64 89.73 98.49 89.73 88.74 238.43 67.59 238.43 67.64 89.73"/>
            <g class="cls-13">
              <g>
                <polygon class="cls-1" points="323.36 739.77 359.48 739.77 384.44 404.98 384.5 404.98 405.4 133.05 405.45 132.7 441.57 132.7 466.59 -202.98 429.86 -202.98 408.96 68.95 408.91 69.3 372.78 69.3 347.83 404.09 347.77 404.09 326.87 676.02 326.82 676.38 290.69 676.38 265.68 1012.06 302.41 1012.06 323.31 740.13 323.36 739.77"/>
                <polygon class="cls-7" points="159.18 739.77 195.31 739.77 220.26 404.98 220.32 404.98 241.22 133.05 241.27 132.7 277.4 132.7 302.41 -202.98 265.68 -202.98 244.78 68.95 244.73 69.3 208.61 69.3 183.65 404.09 183.59 404.09 162.69 676.02 162.64 676.38 126.52 676.38 101.5 1012.06 138.23 1012.06 159.13 740.13 159.18 739.77"/>
                <polygon class="cls-9" points="-5 739.77 31.13 739.77 56.08 404.98 56.14 404.98 77.05 133.05 77.09 132.7 113.22 132.7 138.24 -202.98 101.5 -202.98 80.6 68.95 80.55 69.3 44.43 69.3 19.48 404.09 19.42 404.09 -1.49 676.02 -1.53 676.38 -37.66 676.38 -62.68 1012.06 -25.95 1012.06 -5.04 740.13 -5 739.77"/>
                <polygon class="cls-10" points="446.44 436.59 446.49 436.23 482.62 436.23 507.57 101.44 507.63 101.44 528.53 -170.48 528.58 -170.84 564.71 -170.84 589.72 -506.52 552.99 -506.52 532.09 -234.59 532.04 -234.23 495.92 -234.23 470.96 100.56 470.9 100.56 450 372.48 449.95 372.84 413.83 372.84 388.88 707.63 388.81 707.63 367.91 979.56 367.87 979.91 331.74 979.91 306.72 1315.59 343.45 1315.59 364.36 1043.67 364.4 1043.31 400.53 1043.31 425.48 708.52 425.54 708.52 446.44 436.59"/>
                <polygon class="cls-5" points="282.27 436.59 282.31 436.23 318.44 436.23 343.39 101.44 343.45 101.44 364.36 -170.48 364.4 -170.84 400.53 -170.84 425.55 -506.52 388.81 -506.52 367.91 -234.59 367.87 -234.23 331.74 -234.23 306.79 100.56 306.73 100.56 285.82 372.48 285.78 372.84 249.65 372.84 224.7 707.63 224.64 707.63 203.73 979.56 203.69 979.91 167.56 979.91 142.54 1315.59 179.28 1315.59 200.18 1043.67 200.22 1043.31 236.35 1043.31 261.3 708.52 261.36 708.52 282.27 436.59"/>
                <polygon class="cls-3" points="118.09 436.59 118.14 436.23 154.26 436.23 179.22 101.44 179.28 101.44 200.18 -170.48 200.22 -170.84 236.35 -170.84 261.37 -506.52 224.64 -506.52 203.73 -234.59 203.69 -234.23 167.56 -234.23 142.61 100.56 142.55 100.56 121.64 372.48 121.6 372.84 85.47 372.84 60.52 707.63 60.46 707.63 39.56 979.56 39.51 979.91 3.38 979.91 -21.63 1315.59 15.1 1315.59 36 1043.67 36.05 1043.31 72.17 1043.31 97.13 708.52 97.19 708.52 118.09 436.59"/>
                <polygon class="cls-8" points="-46.04 436.23 -9.91 436.23 15.04 101.44 15.1 101.44 36 -170.48 36.05 -170.84 72.17 -170.84 97.19 -506.52 60.46 -506.52 39.56 -234.59 39.51 -234.23 3.38 -234.23 -21.57 100.56 -21.63 100.56 -42.53 372.48 -42.58 372.84 -78.7 372.84 -103.72 708.52 -66.99 708.52 -46.09 436.59 -46.04 436.23"/>
              </g>
            </g>
            <rect class="cls-6" x="-70.46" y="211.24" width="613.61" height="409.07"/>
          </g>
        </g>
      </g>
    </g>
  </g>
</svg>